<?xml version="1.0" standalone="no"?>
<!DOCTYPE svg PUBLIC "-//W3C//DTD SVG 20010904//EN"
 "http://www.w3.org/TR/2001/REC-SVG-20010904/DTD/svg10.dtd">
<svg version="1.0" xmlns="http://www.w3.org/2000/svg"
 width="640.000000pt" height="640.000000pt" viewBox="0 0 640.000000 640.000000"
 preserveAspectRatio="xMidYMid meet">
<metadata>
Created by potrace 1.11, written by Peter Selinger 2001-2013
</metadata>
<g transform="translate(0.000000,640.000000) scale(0.100000,-0.100000)"
fill="#000000" stroke="none">
<path d="M3846 5803 c-1 -2 -42 -5 -92 -8 -109 -6 -181 -13 -214 -20 -14 -3
-43 -8 -65 -11 -81 -12 -273 -55 -375 -84 -129 -38 -119 -35 -153 -48 -16 -7
-31 -12 -34 -12 -13 0 -219 -85 -224 -93 -3 -4 -12 -9 -20 -10 -23 -4 -133
-59 -141 -71 -4 -6 -8 -7 -8 -3 0 5 -15 0 -32 -11 -18 -11 -49 -29 -68 -40
-82 -45 -160 -96 -305 -196 -31 -21 -171 -132 -191 -151 -6 -5 -39 -35 -73
-65 -105 -92 -233 -223 -351 -356 -15 -16 -53 -63 -85 -104 -33 -41 -64 -79
-68 -85 -34 -42 -163 -228 -214 -310 -34 -55 -67 -105 -73 -112 -5 -7 -10 -14
-10 -16 0 -2 -27 -52 -60 -111 -68 -122 -206 -402 -225 -456 -1 -3 -7 -16 -12
-30 -88 -204 -205 -557 -268 -806 -22 -90 -22 -91 35 -108 42 -13 100 -14 329
-10 l278 5 -3 -85 c-1 -46 -5 -89 -8 -95 -4 -5 -2 -12 3 -15 5 -3 6 -21 2 -38
-3 -18 -5 -62 -4 -98 2 -36 3 -76 2 -90 -1 -34 -1 -32 5 -155 4 -60 8 -126 11
-145 2 -19 7 -64 10 -100 8 -79 19 -90 81 -79 60 11 122 28 159 44 139 59 425
158 433 151 2 -2 25 -66 51 -143 67 -193 111 -297 213 -505 60 -123 69 -136
91 -134 22 2 115 50 127 66 3 3 21 17 40 30 19 13 37 27 40 30 3 3 28 24 55
45 28 22 52 43 55 46 3 3 48 38 100 78 52 39 106 80 120 91 l25 20 25 -28 c14
-16 52 -59 85 -97 111 -126 387 -395 406 -395 5 0 9 -7 9 -16 0 -8 3 -13 8
-11 4 3 19 -5 34 -17 19 -14 25 -25 19 -35 -7 -11 -10 -9 -15 7 -7 22 -43 36
-43 17 0 -7 6 -11 12 -8 20 7 26 -25 8 -42 -17 -18 -11 -31 9 -19 21 14 36 13
42 -2 5 -12 2 -12 -15 -3 -13 6 -19 7 -15 1 4 -6 -4 -9 -19 -7 -25 2 -25 2 -8
-15 12 -12 20 -14 25 -6 7 10 9 9 12 -13 0 -5 4 -12 8 -16 9 -9 4 17 -6 34 -7
11 -5 13 8 8 10 -4 20 -7 22 -7 3 0 2 -6 -2 -12 -4 -7 -4 -10 1 -6 4 4 17 3
29 -3 17 -8 16 -6 -4 10 -30 25 -14 28 20 4 20 -13 22 -14 13 -2 -7 9 -9 20
-5 24 4 5 0 4 -8 0 -13 -7 -13 -6 -2 7 10 13 10 17 -3 22 -13 4 -14 10 -5 26
8 14 8 20 0 20 -6 0 -15 -10 -20 -23 -5 -13 -9 -16 -9 -7 -1 22 19 40 43 40
10 0 16 3 13 6 -11 11 14 46 28 40 9 -3 12 0 9 8 -3 7 9 28 26 47 16 19 32 42
36 52 3 9 10 17 15 17 5 0 9 5 9 11 0 12 190 296 222 332 l22 24 135 -67 c75
-37 168 -80 206 -95 39 -15 84 -33 100 -41 17 -8 101 -38 188 -68 l158 -54 24
26 c27 29 76 154 99 254 8 35 22 82 30 106 8 23 13 42 11 42 -2 0 2 18 10 40
8 22 12 40 8 40 -3 0 -1 6 4 13 6 6 16 33 23 60 7 26 17 50 22 53 4 3 5 10 2
16 -4 7 15 8 57 4 155 -16 240 -19 484 -18 222 1 316 4 346 11 25 5 31 177 14
376 -3 33 -6 90 -8 126 -2 36 -7 71 -11 77 -4 7 -4 12 1 12 4 0 8 35 8 78 0
170 33 317 103 460 20 39 39 72 44 72 4 0 8 5 8 12 0 6 7 20 17 30 24 26 12
31 -33 11 -21 -9 -41 -17 -44 -18 -3 -1 -23 -9 -45 -19 -22 -10 -58 -24 -80
-33 -22 -8 -54 -21 -72 -29 -17 -8 -35 -14 -41 -14 -5 0 -26 -7 -46 -15 -20
-8 -37 -15 -38 -15 -2 0 -43 -14 -93 -31 -87 -29 -353 -101 -425 -115 -19 -3
-44 -8 -55 -10 -196 -35 -252 -44 -262 -40 -7 3 -15 1 -17 -3 -3 -4 -21 -7
-41 -6 -19 1 -35 -1 -35 -4 0 -3 -25 -6 -55 -5 -30 0 -55 -2 -55 -5 0 -8 -326
-5 -345 3 -8 3 -17 1 -20 -5 -4 -5 -12 -6 -18 -2 -7 4 -25 9 -42 10 -16 1 -48
4 -70 7 -22 3 -61 7 -86 10 -296 36 -650 175 -872 342 -31 24 -59 44 -62 44
-6 0 -13 7 -120 110 -43 41 -105 109 -137 150 -32 41 -62 80 -66 85 -26 33
-88 137 -126 212 -122 241 -141 329 -141 643 0 211 11 269 97 510 60 166 104
244 235 415 143 186 213 250 445 403 121 79 334 168 477 198 37 7 56 12 56 14
0 1 7 3 15 5 131 26 184 36 230 41 30 4 62 8 70 10 8 1 27 3 43 3 15 1 27 5
27 9 0 7 -157 11 -164 5z m-476 -5045 c0 -4 -4 -8 -9 -8 -6 0 -12 4 -15 8 -3
5 1 9 9 9 8 0 15 -4 15 -9z"/>
<path d="M4020 5800 c0 -5 5 -10 11 -10 5 0 7 5 4 10 -3 6 -8 10 -11 10 -2 0
-4 -4 -4 -10z"/>
<path d="M4050 5800 c0 -5 5 -10 11 -10 5 0 7 5 4 10 -3 6 -8 10 -11 10 -2 0
-4 -4 -4 -10z"/>
<path d="M2496 887 c3 -10 9 -15 12 -12 3 3 0 11 -7 18 -10 9 -11 8 -5 -6z"/>
<path d="M2935 881 c-3 -5 -2 -12 3 -15 5 -3 9 1 9 9 0 17 -3 19 -12 6z"/>
<path d="M3160 880 c8 -5 20 -10 25 -10 6 0 3 5 -5 10 -8 5 -19 10 -25 10 -5
0 -3 -5 5 -10z"/>
<path d="M3673 871 c0 -11 5 -18 9 -15 4 3 5 11 1 19 -7 21 -12 19 -10 -4z"/>
<path d="M2696 862 c-2 -4 -1 -14 4 -22 7 -11 9 -9 7 8 -1 24 -3 26 -11 14z"/>
<path d="M3130 850 c-6 -11 -8 -20 -6 -20 3 0 10 9 16 20 6 11 8 20 6 20 -3 0
-10 -9 -16 -20z"/>
<path d="M3587 859 c7 -7 15 -10 18 -7 3 3 -2 9 -12 12 -14 6 -15 5 -6 -5z"/>
<path d="M3795 861 c-3 -5 -2 -12 3 -15 5 -3 9 1 9 9 0 17 -3 19 -12 6z"/>
<path d="M3935 860 c-3 -5 -1 -10 4 -10 6 0 11 5 11 10 0 6 -2 10 -4 10 -3 0
-8 -4 -11 -10z"/>
<path d="M2756 847 c3 -10 9 -15 12 -12 3 3 0 11 -7 18 -10 9 -11 8 -5 -6z"/>
<path d="M2876 847 c3 -10 9 -15 12 -12 3 3 0 11 -7 18 -10 9 -11 8 -5 -6z"/>
<path d="M3097 840 c-3 -11 -1 -20 4 -20 5 0 9 9 9 20 0 11 -2 20 -4 20 -2 0
-6 -9 -9 -20z"/>
<path d="M3235 850 c3 -5 8 -10 11 -10 2 0 4 5 4 10 0 6 -5 10 -11 10 -5 0 -7
-4 -4 -10z"/>
<path d="M3470 849 c0 -5 5 -7 10 -4 6 3 10 8 10 11 0 2 -4 4 -10 4 -5 0 -10
-5 -10 -11z"/>
<path d="M3550 849 c0 -5 5 -7 10 -4 6 3 10 8 10 11 0 2 -4 4 -10 4 -5 0 -10
-5 -10 -11z"/>
<path d="M2926 838 c3 -5 10 -6 15 -3 13 9 11 12 -6 12 -8 0 -12 -4 -9 -9z"/>
<path d="M2956 835 c-9 -26 -7 -32 5 -12 6 10 9 21 6 23 -2 3 -7 -2 -11 -11z"/>
<path d="M3030 838 c0 -4 4 -8 9 -8 6 0 12 4 15 8 3 5 -1 9 -9 9 -8 0 -15 -4
-15 -9z"/>
<path d="M3158 843 c6 -3 10 -9 7 -14 -4 -5 1 -6 9 -3 23 9 19 20 -6 21 -13 0
-17 -1 -10 -4z"/>
<path d="M3421 844 c3 -20 -2 -35 -10 -29 -6 3 -15 -4 -22 -16 -10 -19 -9 -21
4 -16 11 4 15 1 12 -13 -2 -11 2 -26 10 -34 8 -7 12 -15 10 -18 -2 -2 4 -4 15
-5 10 -1 26 7 35 17 10 11 22 17 28 13 5 -3 7 -1 3 5 -3 6 -2 13 4 17 6 4 7
11 4 17 -4 7 -2 8 5 4 9 -6 9 -11 0 -22 -8 -10 -8 -14 0 -14 10 0 15 14 12 33
-1 5 4 7 11 4 7 -2 11 -11 9 -18 -4 -16 -4 -26 2 -54 2 -11 -1 -27 -7 -35 -9
-13 -9 -13 6 -2 16 12 17 39 3 62 -3 6 1 10 9 10 19 0 20 11 4 29 -11 11 -10
13 3 8 9 -3 22 0 28 6 8 8 11 8 11 0 0 -7 -4 -15 -10 -18 -21 -13 -9 -22 29
-22 27 0 48 8 68 24 21 18 22 21 6 14 -16 -8 -23 -8 -27 2 -3 6 -4 3 -3 -7 1
-10 -3 -21 -9 -23 -6 -2 -10 6 -9 19 1 13 -2 29 -8 36 -6 8 -5 12 3 12 8 0 11
2 8 5 -3 3 -13 2 -22 -1 -13 -5 -15 -9 -5 -15 7 -4 14 -17 16 -30 3 -18 1 -20
-12 -9 -8 7 -12 17 -8 23 3 6 1 7 -5 3 -7 -4 -12 -2 -12 3 0 6 -5 11 -11 11
-5 0 -8 -4 -4 -9 3 -5 1 -12 -4 -15 -5 -4 -12 3 -16 14 -8 25 -16 25 -49 -1
-14 -11 -30 -18 -35 -14 -5 3 -12 1 -16 -5 -3 -5 1 -10 9 -10 10 0 13 -6 10
-15 -4 -8 -10 -15 -16 -15 -5 0 -7 4 -4 9 3 5 -2 15 -11 22 -15 12 -16 12 -9
-6 13 -32 12 -48 -4 -53 -12 -3 -12 -2 -3 8 13 14 7 40 -9 40 -7 0 -6 -5 1
-13 8 -10 7 -14 -4 -14 -8 0 -11 5 -8 10 4 6 1 7 -8 2 -12 -8 -12 -6 -1 8 8 9
11 21 7 26 -7 13 8 43 21 41 5 -1 9 3 11 9 1 8 0 8 -4 1 -3 -7 -10 -7 -20 1
-8 7 -13 8 -12 3z m144 -33 c3 -5 1 -12 -5 -16 -5 -3 -10 1 -10 9 0 18 6 21
15 7z m70 -40 c3 -6 -3 -9 -14 -8 -11 0 -17 5 -15 9 7 11 22 10 29 -1z"/>
<path d="M3680 835 c-7 -9 -11 -17 -9 -20 3 -2 10 5 17 15 14 24 10 26 -8 5z"/>
<path d="M3754 836 c1 -8 5 -18 8 -22 4 -3 5 1 4 10 -1 8 -5 18 -8 22 -4 3 -5
-1 -4 -10z"/>
<path d="M3502 830 c1 -17 -3 -23 -10 -13 -7 10 -14 10 -35 0 -33 -15 -35 -28
-4 -23 12 3 23 5 25 7 1 1 5 2 10 3 4 1 18 9 31 18 23 16 23 17 3 15 -11 0
-20 -4 -20 -7z"/>
<path d="M3588 833 c7 -3 16 -2 19 1 4 3 -2 6 -13 5 -11 0 -14 -3 -6 -6z"/>
<path d="M2786 822 c-2 -4 4 -8 14 -8 10 0 16 4 14 8 -3 4 -9 8 -14 8 -5 0
-11 -4 -14 -8z"/>
<path d="M2907 813 c4 -11 3 -14 -5 -9 -8 5 -10 1 -5 -10 4 -11 3 -15 -5 -10
-6 4 -16 -3 -22 -16 -10 -21 -10 -21 3 -6 8 10 17 15 20 11 4 -3 9 2 13 11 3
9 11 13 16 10 6 -4 5 3 -1 15 -14 25 -23 28 -14 4z"/>
<path d="M2970 809 c-7 -12 -5 -21 5 -29 9 -7 18 -10 22 -7 3 4 -1 9 -10 13
-9 3 -13 12 -11 19 3 8 12 11 20 8 8 -3 11 -9 8 -14 -3 -5 0 -9 5 -9 10 0 14
12 9 27 -6 14 -39 9 -48 -8z"/>
<path d="M3046 811 c-17 -18 -16 -20 3 -26 12 -3 19 -11 16 -16 -4 -5 -14 -5
-26 2 -12 6 -23 8 -27 5 -3 -3 0 -6 6 -6 6 0 14 -9 17 -20 6 -20 7 -20 24 1
12 15 22 19 31 14 11 -7 9 -10 -6 -17 -17 -8 -17 -8 3 -4 12 2 30 -4 42 -16
12 -10 21 -14 21 -9 0 6 -9 15 -20 21 -11 6 -20 15 -20 21 0 5 10 3 23 -6 13
-8 27 -12 32 -8 4 5 4 -3 1 -17 -6 -23 -6 -24 6 -5 15 23 49 27 56 6 3 -9 0
-11 -8 -6 -9 5 -11 4 -6 -4 6 -9 11 -9 21 -1 9 8 15 8 20 0 3 -5 11 -10 18
-10 6 0 3 6 -7 13 -15 11 -16 17 -5 40 7 15 16 27 21 27 5 0 6 5 3 10 -4 6
-10 8 -15 5 -5 -3 -13 2 -18 11 -6 11 -14 14 -23 8 -8 -5 -18 -9 -24 -10 -5 0
-16 -2 -24 -2 -7 -1 -11 -8 -8 -16 4 -10 1 -13 -8 -10 -8 3 -14 9 -13 12 3 27
-3 32 -22 20 -13 -8 -16 -16 -10 -22 15 -15 12 -30 -4 -17 -7 6 -22 9 -32 5
-18 -5 -17 -4 1 12 16 13 17 16 3 11 -20 -7 -35 9 -16 16 8 3 8 6 2 6 -6 1
-19 -8 -28 -18z m203 -32 c-5 -10 -7 -19 -4 -19 4 0 3 -5 0 -10 -4 -6 -11 -8
-16 -4 -6 4 -6 11 1 19 9 10 7 16 -9 24 -25 14 -42 14 -19 0 27 -15 11 -38
-25 -34 -18 2 -36 4 -42 4 -5 1 -4 5 4 10 9 6 10 11 2 15 -14 9 -14 26 0 26 5
0 8 -4 5 -8 -3 -5 4 -16 15 -25 19 -17 21 -16 23 13 1 8 9 15 18 15 9 0 20 4
24 8 4 4 13 2 20 -4 10 -8 11 -16 3 -30z m-184 21 c3 -5 1 -10 -4 -10 -6 0
-11 5 -11 10 0 6 2 10 4 10 3 0 8 -4 11 -10z"/>
<path d="M3230 800 c0 -5 5 -10 11 -10 5 0 7 5 4 10 -3 6 -8 10 -11 10 -2 0
-4 -4 -4 -10z"/>
<path d="M3693 817 c-3 -5 -2 -11 1 -14 3 -4 6 -1 6 6 0 7 4 10 8 7 4 -2 14
-1 22 4 11 7 9 9 -8 7 -13 -1 -26 -5 -29 -10z"/>
<path d="M3874 812 c23 -26 22 -26 30 -6 3 9 2 12 -5 9 -5 -4 -18 -1 -27 6
-13 11 -12 8 2 -9z"/>
<path d="M4096 822 c-3 -4 4 -9 15 -9 23 -2 25 3 4 10 -8 4 -16 3 -19 -1z"/>
<path d="M3955 809 c-4 -6 -5 -12 -2 -15 2 -3 7 2 10 11 7 17 1 20 -8 4z"/>
<path d="M2670 801 c0 -6 4 -13 10 -16 6 -3 7 1 4 9 -7 18 -14 21 -14 7z"/>
<path d="M2850 800 c0 -5 5 -10 10 -10 6 0 10 5 10 10 0 6 -4 10 -10 10 -5 0
-10 -4 -10 -10z"/>
<path d="M3730 806 c0 -2 7 -7 16 -10 8 -3 12 -2 9 4 -6 10 -25 14 -25 6z"/>
<path d="M3774 799 c-3 -6 -2 -15 4 -21 6 -6 12 -6 17 3 6 8 4 10 -5 4 -10 -6
-12 -4 -7 8 7 19 2 23 -9 6z"/>
<path d="M3807 799 c7 -7 15 -10 18 -7 3 3 -2 9 -12 12 -14 6 -15 5 -6 -5z"/>
<path d="M2715 789 c-4 -6 -5 -12 -2 -15 2 -3 7 2 10 11 7 17 1 20 -8 4z"/>
<path d="M2937 783 c-10 -10 -8 -33 3 -33 5 0 7 8 4 18 -5 14 -3 14 10 -2 9
-11 16 -15 16 -9 0 14 -25 34 -33 26z"/>
<path d="M3711 769 c-13 -10 -18 -19 -12 -19 6 0 14 0 19 0 4 0 7 4 7 9 0 5 4
13 9 18 5 4 7 -4 4 -19 -3 -15 -1 -25 3 -22 11 6 12 41 1 47 -4 3 -18 -3 -31
-14z"/>
<path d="M2734 769 c-3 -6 -2 -15 3 -20 5 -5 9 -1 9 11 0 23 -2 24 -12 9z"/>
<path d="M2775 769 c-4 -6 -5 -12 -2 -15 2 -3 7 2 10 11 7 17 1 20 -8 4z"/>
<path d="M3897 769 c7 -7 15 -10 18 -7 3 3 -2 9 -12 12 -14 6 -15 5 -6 -5z"/>
<path d="M2665 760 c-3 -6 1 -7 9 -4 18 7 21 14 7 14 -6 0 -13 -4 -16 -10z"/>
<path d="M2796 762 c-3 -5 1 -9 9 -9 8 0 12 4 9 9 -3 4 -7 8 -9 8 -2 0 -6 -4
-9 -8z"/>
<path d="M2900 760 c-9 -6 -10 -10 -3 -10 6 0 15 5 18 10 8 12 4 12 -15 0z"/>
<path d="M3770 750 c6 -11 13 -20 16 -20 2 0 0 9 -6 20 -6 11 -13 20 -16 20
-2 0 0 -9 6 -20z"/>
<path d="M3795 760 c-3 -5 -1 -10 4 -10 6 0 11 5 11 10 0 6 -2 10 -4 10 -3 0
-8 -4 -11 -10z"/>
<path d="M3966 762 c-3 -5 1 -9 9 -9 8 0 12 4 9 9 -3 4 -7 8 -9 8 -2 0 -6 -4
-9 -8z"/>
<path d="M4139 768 c-5 -18 -6 -38 -1 -34 7 8 12 36 6 36 -2 0 -4 -1 -5 -2z"/>
<path d="M4170 766 c0 -2 7 -7 16 -10 8 -3 12 -2 9 4 -6 10 -25 14 -25 6z"/>
<path d="M2991 751 c-17 -11 -23 -39 -11 -46 5 -3 7 4 5 16 -3 15 0 19 11 15
8 -3 13 -2 9 3 -3 5 1 12 7 14 7 3 9 6 3 6 -5 0 -16 -3 -24 -8z"/>
<path d="M3830 750 c-11 -7 -11 -10 -2 -10 7 0 10 -5 7 -10 -4 -6 -10 -8 -14
-6 -4 3 -8 -1 -8 -9 0 -10 4 -12 12 -5 7 5 14 8 16 5 3 -2 5 7 5 20 0 14 0 25
0 25 -1 0 -8 -5 -16 -10z"/>
<path d="M3867 747 c-3 -7 3 -13 14 -13 13 0 15 3 7 13 -6 7 -12 13 -13 13 -2
0 -5 -6 -8 -13z"/>
<path d="M2634 736 c1 -8 5 -18 8 -22 4 -3 5 1 4 10 -1 8 -5 18 -8 22 -4 3 -5
-1 -4 -10z"/>
<path d="M2770 736 c0 -2 8 -10 18 -17 15 -13 16 -12 3 4 -13 16 -21 21 -21
13z"/>
<path d="M2878 733 c7 -3 16 -2 19 1 4 3 -2 6 -13 5 -11 0 -14 -3 -6 -6z"/>
<path d="M2913 725 c0 -8 4 -12 9 -9 5 3 6 10 3 15 -9 13 -12 11 -12 -6z"/>
<path d="M3021 724 c0 -11 3 -14 6 -6 3 7 2 16 -1 19 -3 4 -6 -2 -5 -13z"/>
<path d="M3510 730 c0 -5 5 -10 10 -10 6 0 10 5 10 10 0 6 -4 10 -10 10 -5 0
-10 -4 -10 -10z"/>
<path d="M3575 730 c3 -5 8 -10 11 -10 2 0 4 5 4 10 0 6 -5 10 -11 10 -5 0 -7
-4 -4 -10z"/>
<path d="M3610 731 c0 -6 4 -12 8 -15 5 -3 9 1 9 9 0 8 -4 15 -9 15 -4 0 -8
-4 -8 -9z"/>
<path d="M3641 724 c0 -11 3 -14 6 -6 3 7 2 16 -1 19 -3 4 -6 -2 -5 -13z"/>
<path d="M3664 728 c-4 -7 -4 -10 1 -6 4 4 14 3 22 -4 11 -8 12 -7 7 6 -7 19
-20 21 -30 4z"/>
<path d="M2826 722 c-3 -5 1 -9 9 -9 8 0 15 4 15 9 0 4 -4 8 -9 8 -6 0 -12 -4
-15 -8z"/>
<path d="M3055 719 c-4 -6 -4 -13 -1 -16 3 -4 6 -1 6 6 0 7 5 9 10 6 6 -3 10
-1 10 4 0 14 -17 14 -25 0z"/>
<path d="M3093 715 c0 -8 4 -12 9 -9 4 3 8 9 8 15 0 5 -4 9 -8 9 -5 0 -9 -7
-9 -15z"/>
<path d="M3481 716 c-9 -11 -9 -16 1 -22 7 -4 10 -4 6 1 -4 4 -3 14 3 22 6 7
9 13 6 13 -2 0 -10 -6 -16 -14z"/>
<path d="M3746 722 c-3 -5 1 -9 9 -9 8 0 15 4 15 9 0 4 -4 8 -9 8 -6 0 -12 -4
-15 -8z"/>
<path d="M4050 720 c0 -5 5 -10 11 -10 5 0 7 5 4 10 -3 6 -8 10 -11 10 -2 0
-4 -4 -4 -10z"/>
<path d="M3196 702 c-3 -4 4 -9 15 -9 23 -2 25 3 4 10 -8 4 -16 3 -19 -1z"/>
<path d="M3907 699 c7 -7 15 -10 18 -7 3 3 -2 9 -12 12 -14 6 -15 5 -6 -5z"/>
<path d="M2893 685 c0 -8 4 -12 9 -9 5 3 6 10 3 15 -9 13 -12 11 -12 -6z"/>
<path d="M3615 689 c-4 -6 -5 -12 -2 -15 2 -3 7 2 10 11 7 17 1 20 -8 4z"/>
<path d="M2507 679 c7 -7 15 -10 18 -7 3 3 -2 9 -12 12 -14 6 -15 5 -6 -5z"/>
<path d="M3070 676 c7 -7 13 -7 20 0 6 6 3 10 -10 10 -13 0 -16 -4 -10 -10z"/>
<path d="M3295 680 c-3 -5 -1 -10 4 -10 6 0 11 5 11 10 0 6 -2 10 -4 10 -3 0
-8 -4 -11 -10z"/>
<path d="M3375 680 c-3 -5 -1 -10 4 -10 6 0 11 5 11 10 0 6 -2 10 -4 10 -3 0
-8 -4 -11 -10z"/>
<path d="M2850 642 c0 -5 7 -9 15 -9 8 0 12 4 9 9 -3 4 -9 8 -15 8 -5 0 -9 -4
-9 -8z"/>
<path d="M3915 640 c-3 -5 -1 -10 4 -10 6 0 11 5 11 10 0 6 -2 10 -4 10 -3 0
-8 -4 -11 -10z"/>
</g>
</svg>
